HIERARCHY
ROOT Hips
{
	OFFSET 0.000000 0.000000 0.000000
	CHANNELS 6 Xposition Yposition Zposition Zrotation Yrotation Xrotation 
	JOINT LeftUpLeg_virtual
	{
		OFFSET 0.000000 0.000000 0.000000
		CHANNELS 3 Zrotation Yrotation Xrotation
		JOINT LeftUpLeg
		{
			OFFSET 10.205400 -3.823500 0.155100
			CHANNELS 3 Zrotation Yrotation Xrotation
			JOINT LeftLeg
			{
				OFFSET 0.708757 -12.982077 0.567790
				CHANNELS 3 Zrotation Yrotation Xrotation
				JOINT LeftFoot
				{
					OFFSET -0.708756 -10.717838 -2.184338
					CHANNELS 3 Zrotation Yrotation Xrotation
					JOINT LeftToeBase
					{
						OFFSET 0.108149 -7.191104 7.560241
						CHANNELS 3 Zrotation Yrotation Xrotation
						End Site
						{
							OFFSET 0.000000 0.000000 0.000000
						}
					}
				}
			}
		}
	}
	JOINT RightUpLeg_virtual
	{
		OFFSET 0.000000 0.000000 0.000000
		CHANNELS 3 Zrotation Yrotation Xrotation
		JOINT RightUpLeg
		{
			OFFSET -10.205400 -3.823500 0.005500
			CHANNELS 3 Zrotation Yrotation Xrotation
			JOINT RightLeg
			{
				OFFSET -0.708756 -12.982134 0.610632
				CHANNELS 3 Zrotation Yrotation Xrotation
				JOINT RightFoot
				{
					OFFSET 0.708754 -10.717769 -1.945823
					CHANNELS 3 Zrotation Yrotation Xrotation
					JOINT RightToeBase
					{
						OFFSET -0.108140 -7.191069 7.372968
						CHANNELS 3 Zrotation Yrotation Xrotation
						End Site
						{
							OFFSET 0.000000 0.000000 0.000000
						}
					}
				}
			}
		}
	}
	JOINT Spine_virtual
	{
		OFFSET 0.000000 0.000000 0.000000
		CHANNELS 3 Zrotation Yrotation Xrotation
		JOINT Spine
		{
			OFFSET 0.000000 6.876099 0.125700
			CHANNELS 3 Zrotation Yrotation Xrotation
			JOINT Spine1
			{
				OFFSET 0.000000 8.022060 0.146608
				CHANNELS 3 Zrotation Yrotation Xrotation
				JOINT Spine2
				{
					OFFSET 0.000000 9.168068 0.167552
					CHANNELS 3 Zrotation Yrotation Xrotation
					JOINT Neck_virtual
					{
						OFFSET 0.000000 0.000000 0.000000
						CHANNELS 3 Zrotation Yrotation Xrotation
						JOINT Neck
						{
							OFFSET 0.000000 10.314075 0.188496
							CHANNELS 3 Zrotation Yrotation Xrotation
							JOINT Head
							{
								OFFSET 0.000000 7.643700 -2.377400
								CHANNELS 3 Zrotation Yrotation Xrotation
								End Site
								{
									OFFSET 0.000000 0.000000 0.000000
								}
							}
						}
					}
					JOINT LeftShoulder_virtual
					{
						OFFSET 0.000000 0.000000 0.000000
						CHANNELS 3 Zrotation Yrotation Xrotation
						JOINT LeftShoulder
						{
							OFFSET 4.392200 8.824978 0.174984
							CHANNELS 3 Zrotation Yrotation Xrotation
							JOINT LeftArm
							{
								OFFSET 8.771219 -2.981674 -0.026999
								CHANNELS 3 Zrotation Yrotation Xrotation
								JOINT LeftForeArm
								{
									OFFSET 8.512804 0.000000 -0.000000
									CHANNELS 3 Zrotation Yrotation Xrotation
									JOINT LeftHand
									{
										OFFSET 18.484802 0.000000 -0.000000
										CHANNELS 3 Zrotation Yrotation Xrotation
										End Site
										{
											OFFSET 0.000000 0.000000 0.000000
										}
									}
								}
							}
						}
					}
					JOINT RightShoulder_virtual
					{
						OFFSET 0.000000 0.000000 0.000000
						CHANNELS 3 Zrotation Yrotation Xrotation
						JOINT RightShoulder
						{
							OFFSET -4.392200 8.824993 0.141379
							CHANNELS 3 Zrotation Yrotation Xrotation
							JOINT RightArm
							{
								OFFSET -8.771282 -2.981682 -0.094208
								CHANNELS 3 Zrotation Yrotation Xrotation
								JOINT RightForeArm
								{
									OFFSET -8.494598 0.000000 0.000000
									CHANNELS 3 Zrotation Yrotation Xrotation
									JOINT RightHand
									{
										OFFSET -18.483803 0.000000 0.000001
										CHANNELS 3 Zrotation Yrotation Xrotation
										End Site
										{
											OFFSET 0.000000 0.000000 0.000000
										}
									}
								}
							}
						}
					}
				}
			}
		}
	}
}
MOTION
Frames: 14
Frame Time: 0.033333
3.304931 36.199623 12.130075 -179.904929 -15.704478 179.703752 -0.783516 -2.638346 13.526863 -2.901044 -6.132256 -13.268968 5.267703 3.870126 13.713352 3.618679 0.753412 9.255483 0.000000 0.000000 0.000000 3.846482 -2.235932 12.508262 -1.582518 6.676375 -16.135871 -2.737380 5.707625 17.589301 9.973105 4.472876 6.372678 0.000000 0.000000 0.000000 1.594138 0.578394 0.608714 6.317029 0.674600 -10.643937 0.776574 -2.727938 7.740299 0.000124 0.042585 -0.081757 0.656815 -0.593978 9.454795 8.334124 -3.069134 20.635786 0.000000 0.000000 0.000000 2.042519 -0.252804 6.188017 -7.283470 -2.509297 2.002235 -58.389744 25.555853 -7.707829 -132.357250 -85.386538 153.196608 0.000000 0.000000 0.000000 -2.732221 1.398493 4.854396 15.679341 4.167620 -3.167326 53.182274 -9.244844 -38.457500 -164.610824 66.211198 -171.531049 0.000000 0.000000 0.000000 
3.297059 36.202419 12.092671 -179.866516 -13.904558 179.756099 -0.856188 -2.202357 13.613008 -3.127471 -5.338566 -13.144200 5.312889 4.159170 14.258741 3.712388 0.926249 8.669182 0.000000 0.000000 0.000000 3.871666 -1.667290 12.568562 -1.679900 7.314012 -16.289820 -2.871992 6.347557 17.308048 10.145759 4.536144 6.530915 0.000000 0.000000 0.000000 1.653010 0.990547 0.605994 6.604425 0.335246 -10.547413 0.898560 -2.846318 7.690963 -0.002331 0.035942 -0.020235 0.808166 -0.710349 9.429562 9.053453 -3.650938 20.512663 0.000000 0.000000 0.000000 2.157229 -0.451016 6.137522 -7.240774 -2.472591 2.034181 -58.235463 25.860457 -7.748827 -130.159227 -85.349873 151.113441 0.000000 0.000000 0.000000 -2.624985 1.274987 4.751358 15.722711 3.770813 -3.245153 52.816606 -8.899943 -42.388683 -164.904795 65.369473 -171.664210 0.000000 0.000000 0.000000 
3.269745 36.199875 12.045558 -179.979023 -12.029936 179.701198 -1.072170 -1.928167 13.777870 -3.371516 -4.405665 -12.913024 5.269933 4.318524 14.756026 3.913813 1.232698 8.206437 0.000000 0.000000 0.000000 3.750193 -1.163559 12.624281 -1.804159 8.150699 -16.413136 -3.075376 7.041834 17.106170 10.306395 4.691143 6.461385 0.000000 0.000000 0.000000 1.617965 1.331616 0.707906 6.854428 -0.041108 -10.415945 0.938088 -2.967777 7.697803 -0.016026 0.037084 -0.043107 0.873979 -0.969979 9.474092 9.264576 -4.000765 20.402134 0.000000 0.000000 0.000000 2.286737 -0.549795 6.189482 -7.117356 -2.336544 2.012188 -58.139725 25.984555 -7.547313 -130.149514 -85.379919 151.162605 0.000000 0.000000 0.000000 -2.509224 1.171868 4.871890 15.849164 3.503392 -3.315409 52.710247 -9.137996 -44.902586 -165.157225 64.761975 -171.814679 0.000000 0.000000 0.000000 
3.236015 36.188267 11.981030 -179.968682 -10.222503 179.735458 -1.150903 -1.724923 13.924332 -3.628645 -3.632218 -12.694465 5.175132 4.502355 15.279002 4.123012 1.592134 7.919277 0.000000 0.000000 0.000000 3.741316 -0.619031 12.573357 -1.919700 9.056823 -16.640250 -3.376383 7.736283 16.942482 10.492082 4.693593 6.335818 0.000000 0.000000 0.000000 1.677629 1.729063 0.628189 7.178661 -0.378840 -10.264251 0.972122 -3.113578 7.773982 -0.020521 0.014286 -0.049134 0.891671 -1.078254 9.626154 9.098407 -4.089693 20.232385 0.000000 0.000000 0.000000 2.345656 -0.663457 6.268147 -6.912499 -2.206451 1.925774 -58.255182 25.815209 -7.321083 -130.310843 -85.313243 151.301504 0.000000 0.000000 0.000000 -2.480756 1.076501 4.934316 15.935361 3.316791 -3.334517 52.936493 -9.982196 -46.070545 -165.282819 64.305220 -171.916585 0.000000 0.000000 0.000000 
3.212049 36.169598 11.918662 -179.899847 -8.606187 179.746386 -1.172028 -1.411241 14.074307 -3.756449 -3.127005 -12.529631 4.931840 4.814906 15.678433 4.454159 1.955887 7.760694 0.000000 0.000000 0.000000 3.784505 -0.127319 12.581671 -1.990987 9.729810 -16.828148 -3.675598 8.343434 16.934078 10.743655 4.767354 6.245124 0.000000 0.000000 0.000000 1.768289 2.036876 0.604906 7.524061 -0.698043 -10.122313 0.993394 -3.187625 7.878371 -0.026979 0.041670 -0.020163 0.843840 -1.105699 9.682742 8.560062 -3.981459 19.894634 0.000000 0.000000 0.000000 2.329048 -0.746029 6.362999 -6.648379 -2.037058 1.797565 -58.557835 25.558653 -6.918360 -130.380334 -85.207272 151.321284 0.000000 0.000000 0.000000 -2.517190 0.963953 5.014691 16.069512 3.240203 -3.271175 53.251775 -11.157487 -46.282263 -165.576462 64.098880 -172.222865 0.000000 0.000000 0.000000 
3.201006 36.156212 11.883986 179.994350 -7.329897 179.789130 -1.225508 -1.117667 14.159002 -4.005043 -2.769005 -12.468252 4.968470 4.839288 15.861496 4.474681 2.202369 7.702754 0.000000 0.000000 0.000000 3.662041 0.312953 12.639038 -1.941977 10.219838 -17.017983 -3.967656 8.856582 17.009036 10.949199 4.753216 6.181553 0.000000 0.000000 0.000000 1.744132 2.317154 0.645350 7.750775 -1.067755 -10.007580 0.945398 -3.252706 7.955847 -0.021328 0.059563 -0.019603 0.782038 -1.199574 9.808399 7.614036 -3.742978 19.550052 0.000000 0.000000 0.000000 2.321347 -0.815120 6.428356 -6.261051 -1.915231 1.832408 -59.067175 25.259687 -6.406897 -132.270930 -85.185047 153.096040 0.000000 0.000000 0.000000 -2.488134 0.979960 5.139798 16.330504 3.281061 -3.109422 53.777081 -12.294484 -46.056280 -165.686661 64.101216 -172.448862 0.000000 0.000000 0.000000 
3.210839 36.150185 11.892499 -179.962890 -6.391883 179.859494 -1.177843 -0.867416 14.205399 -4.096230 -2.508303 -12.523300 4.824166 4.899938 15.889481 4.507899 2.482897 7.737301 0.000000 0.000000 0.000000 3.730065 0.780607 12.693833 -1.954294 10.469037 -17.266868 -4.191339 9.085342 17.081033 11.137099 4.840871 6.128389 0.000000 0.000000 0.000000 1.814546 2.595091 0.694032 7.948027 -1.399392 -9.942392 0.945581 -3.324388 7.991702 -0.018011 0.061144 -0.029813 0.690931 -1.236716 9.927546 6.422692 -3.122387 19.108281 0.000000 0.000000 0.000000 2.296602 -0.860745 6.575598 -5.710977 -1.823540 1.688183 -59.435002 25.014067 -5.427615 -133.646120 -85.186959 154.312770 0.000000 0.000000 0.000000 -2.533997 0.940557 5.243777 16.751471 3.297433 -2.966012 54.192702 -13.343651 -45.724855 -165.800547 64.226693 -172.755742 0.000000 0.000000 0.000000 
3.231248 36.163048 11.946977 -179.911513 -5.843073 179.788351 -1.102505 -0.600717 14.295808 -4.121006 -2.436156 -12.588222 4.811664 4.968399 15.772196 4.431714 2.682221 7.908935 0.000000 0.000000 0.000000 3.763172 1.063323 12.816317 -1.928249 10.611011 -17.499085 -4.372937 9.201220 16.975858 11.284546 5.060544 6.350023 0.000000 0.000000 0.000000 1.871864 2.820531 0.889694 8.069015 -1.627541 -9.858972 0.905694 -3.329786 8.014722 -0.006986 0.083366 -0.019593 0.619763 -1.178312 9.883480 5.009930 -2.665795 18.568146 0.000000 0.000000 0.000000 2.263821 -0.934529 6.593265 -4.927670 -1.837473 1.667932 -59.715019 24.852589 -4.281079 -134.775629 -85.209561 155.270841 0.000000 0.000000 0.000000 -2.542887 0.892606 5.291339 17.325198 3.310934 -2.777741 54.627815 -14.168853 -45.436450 -165.774278 64.430042 -172.856351 0.000000 0.000000 0.000000 
3.268150 36.195171 12.041491 -179.978476 -5.768400 179.753804 -1.148310 -0.422340 14.346326 -4.048335 -2.476899 -12.729403 4.851751 4.945291 15.537748 4.225780 2.798255 8.190573 0.000000 0.000000 0.000000 3.846970 1.244751 12.973605 -2.147636 10.578640 -17.706717 -4.270978 9.108274 16.842972 11.202003 4.838025 6.509475 0.000000 0.000000 0.000000 1.825487 2.960728 1.132746 8.043515 -1.981173 -9.833783 0.827616 -3.369065 8.008030 -0.027982 0.023502 -0.029374 0.528834 -1.221627 9.861014 3.398290 -1.982253 18.064296 0.000000 0.000000 0.000000 2.299265 -0.832549 6.557319 -3.951355 -1.777681 1.713951 -59.633945 24.806431 -2.937234 -135.813940 -85.201597 156.131089 0.000000 0.000000 0.000000 -2.494143 1.036341 5.382554 17.963549 3.346224 -2.650981 55.076251 -14.747814 -45.376860 -165.671129 64.713290 -173.211166 0.000000 0.000000 0.000000 
3.317928 36.235489 12.145614 -179.899656 -6.124438 179.675284 -1.100187 -0.281909 14.388383 -3.766074 -2.641191 -12.920630 4.653430 4.973192 15.234119 4.025261 2.877752 8.511327 0.000000 0.000000 0.000000 4.025655 1.328466 13.130947 -2.216020 10.356824 -17.855829 -4.266465 8.737490 16.632730 11.188234 4.968955 6.756299 0.000000 0.000000 0.000000 1.848187 3.029090 1.347918 7.998227 -2.204665 -9.821431 0.777620 -3.359197 7.959833 -0.027885 0.032248 -0.036488 0.391234 -1.125128 9.755088 1.714008 -1.220057 17.473613 0.000000 0.000000 0.000000 2.250155 -0.754512 6.573897 -2.794796 -1.843258 1.681998 -59.315200 24.632790 -1.403747 -136.602021 -85.287568 156.747090 0.000000 0.000000 0.000000 -2.586877 1.098465 5.349997 18.670869 3.262164 -2.448620 55.521891 -15.494373 -45.135762 -165.504732 65.097331 -173.355337 0.000000 0.000000 0.000000 
3.382501 36.277454 12.233047 -179.994664 -6.858412 179.692879 -1.169837 -0.222885 14.369707 -3.482194 -2.950408 -13.182304 4.663620 4.891773 14.850144 3.665210 2.811594 8.843771 0.000000 0.000000 0.000000 4.085017 1.314348 13.249684 -2.350563 9.973306 -17.957324 -3.962638 8.378765 16.501290 10.913564 4.682238 6.901901 0.000000 0.000000 0.000000 1.767634 3.121847 1.464578 7.748086 -2.405611 -9.788921 0.650098 -3.336150 7.924509 -0.021585 -0.045567 -0.061657 0.250026 -1.093918 9.749039 -0.074557 -0.434109 16.963084 0.000000 0.000000 0.000000 2.249501 -0.628415 6.576771 -1.633044 -1.903325 1.726999 -58.903770 24.230446 -0.049012 -138.246116 -85.348569 158.228190 0.000000 0.000000 0.000000 -2.628026 1.200450 5.433203 19.273670 3.164593 -2.319124 56.072756 -16.629743 -44.515895 -165.426403 65.692937 -173.535135 0.000000 0.000000 0.000000 
3.461364 36.305748 12.297262 -179.903535 -7.976998 179.622309 -1.184178 -0.247929 14.380721 -2.893384 -3.413624 -13.465888 4.493775 4.847962 14.505116 3.543532 2.872087 9.140871 0.000000 0.000000 0.000000 4.253055 1.069945 13.340020 -2.311591 9.288091 -17.994188 -3.630504 7.907127 16.471928 10.620871 4.726101 7.126735 0.000000 0.000000 0.000000 1.775562 2.937208 1.548229 7.526972 -2.434804 -9.709834 0.528651 -3.237211 7.926348 -0.010126 0.030013 -0.034810 0.036970 -0.986517 9.655330 -1.801948 0.386181 16.485715 0.000000 0.000000 0.000000 2.093435 -0.635670 6.549488 -0.561289 -2.013856 1.715692 -58.696337 23.424629 0.849724 -140.303465 -85.358349 160.110194 0.000000 0.000000 0.000000 -2.804087 1.245193 5.383178 19.795452 2.899669 -2.127085 56.643739 -18.170253 -43.223510 -165.082954 66.493039 -173.341185 0.000000 0.000000 0.000000 
3.546572 36.314568 12.333175 -179.898590 -9.361269 179.596054 -1.079379 -0.341521 14.380436 -2.655975 -4.040532 -13.764929 4.699324 4.613790 14.204679 3.129285 2.686696 9.394942 0.000000 0.000000 0.000000 4.296143 0.730567 13.388288 -2.166453 8.335991 -17.990851 -3.224854 7.296824 16.658061 10.274011 4.849372 7.287493 0.000000 0.000000 0.000000 1.755761 2.775609 1.554172 7.203821 -2.411577 -9.612561 0.324573 -3.154127 7.961800 -0.016085 0.033572 -0.078500 -0.189619 -0.862752 9.677667 -3.508096 1.092965 16.145539 0.000000 0.000000 0.000000 1.882504 -0.545298 6.608944 0.256173 -2.048387 1.711956 -58.889980 22.276628 1.227787 -143.571396 -85.309145 163.181962 0.000000 0.000000 0.000000 -2.956817 1.312590 5.460801 20.276257 2.679902 -2.039388 57.254518 -20.161035 -41.315223 -164.721719 67.650244 -172.987177 0.000000 0.000000 0.000000 
3.638189 36.302734 12.348661 -179.889192 -11.057933 179.664520 -0.882024 -0.690353 14.299972 -2.442527 -5.132801 -14.152222 4.963651 4.251748 13.959789 2.779343 2.461792 9.661373 0.000000 0.000000 0.000000 4.311799 0.257073 13.417496 -1.885995 7.157526 -17.989974 -2.743565 6.549366 17.034996 9.971928 4.924659 7.386611 0.000000 0.000000 0.000000 1.709607 2.482059 1.449235 6.812986 -2.288874 -9.512684 0.101202 -3.042039 7.978207 0.007046 0.053092 -0.045886 -0.474934 -0.754714 9.674198 -5.060324 1.778842 15.820019 0.000000 0.000000 0.000000 1.626282 -0.449840 6.620137 0.793942 -1.932880 1.688031 -59.466537 21.002555 1.070304 -146.432344 -85.104430 165.827062 0.000000 0.000000 0.000000 -3.220570 1.469762 5.464659 20.662671 2.373952 -1.667152 57.770908 -22.323903 -38.933799 -164.051746 69.139819 -172.184588 0.000000 0.000000 0.000000 
